# xmcd CD database file
#
# Track frame offsets:
#	150
#	11082
#	44042
#	54452
#	92820
#	118007
#	122337
#	140267
#	158125
#	194505
#	214012
#	226767
#	246295
#	264707
#
# Disc length: 3857 seconds
#
# Revision: 0
# Processed by: cddbd v1.5PL3 Copyright (c) Steve Scherf et al.
# Submitted via: CDex 1.51
#
DISCID=c40f0f0e
DTITLE=GROOVER - グリーングリーン　オリジナルドラマCD　Vol.2「お前、女子で誰が好き？　的な夜。」
DYEAR=1900
DGENRE=ゲーム
TTITLE0=愛の生活〜来訪者〜
TTITLE1=朝練ナメンナ
TTITLE2=愛の生活〜突然の痛み〜
TTITLE3=最近の学生はタクシーで観光ですか
TTITLE4=公園に着きました
TTITLE5=愛の生活〜男らしくドーン〜
TTITLE6=旅館に着きました
TTITLE7=愛の生活〜伊集院の告白〜
TTITLE8=女部屋
TTITLE9=あばよ旅館
TTITLE10=愛の生活〜出産そして感動〜
TTITLE11=男子寮
TTITLE12=ラブレター
TTITLE13=？？？
EXTD=
EXTT0=
EXTT1=
EXTT2=
EXTT3=
EXTT4=
EXTT5=
EXTT6=
EXTT7=
EXTT8=
EXTT9=
EXTT10=
EXTT11=
EXTT12=
EXTT13=
PLAYORDER=
